<svg version="1.1" viewBox="0.0 0.0 1024.0 1024.0" fill="none" stroke="none" stroke-linecap="square" stroke-miterlimit="10" xmlns:xlink="http://www.w3.org/1999/xlink" xmlns="http://www.w3.org/2000/svg"><clipPath id="g32bd9041eb5_0_2.0"><path d="m0 0l1024.0 0l0 1024.0l-1024.0 0l0 -1024.0z" clip-rule="nonzero"/></clipPath><g clip-path="url(#g32bd9041eb5_0_2.0)"><path fill="#ffffff" d="m0 0l1024.0 0l0 1024.0l-1024.0 0z" fill-rule="evenodd"/><path fill="#000000" d="m32.0 512.0l0 0c0 -265.09668 214.90332 -480.0 480.0 -480.0l0 0c127.303894 0 249.3938 50.57128 339.41125 140.58875c90.017456 90.017456 140.58875 212.10733 140.58875 339.41125l0 0c0 265.09668 -214.90332 480.0 -480.0 480.0l0 0c-265.09668 0 -480.0 -214.90332 -480.0 -480.0z" fill-rule="evenodd"/><path fill="#ffffff" d="m128.0 512.0l0 0c0 -212.07733 171.92267 -384.0 384.0 -384.0l0 0c101.84314 0 199.51501 40.45703 271.529 112.47099c72.01398 72.01396 112.47101 169.68587 112.47101 271.529l0 0c0 212.07733 -171.92267 384.0 -384.0 384.0l0 0c-212.07733 0 -384.0 -171.92267 -384.0 -384.0z" fill-rule="evenodd"/></g></svg>