<svg version="1.1" viewBox="0.0 0.0 1024.0 1024.0" fill="none" stroke="none" stroke-linecap="square" stroke-miterlimit="10" xmlns:xlink="http://www.w3.org/1999/xlink" xmlns="http://www.w3.org/2000/svg"><clipPath id="p.0"><path d="m0 0l1024.0 0l0 1024.0l-1024.0 0l0 -1024.0z" clip-rule="nonzero"/></clipPath><g clip-path="url(#p.0)"><path fill="#000000" fill-opacity="0.0" d="m0 0l1024.0 0l0 1024.0l-1024.0 0z" fill-rule="evenodd"/><path fill="#000000" d="m971.05493 52.95953l0 0c20.952026 20.960728 20.948181 54.940968 -0.008544922 75.89699l-842.2192 842.1903c-10.063782 10.063416 -23.712303 15.7161255 -37.94304 15.714478c-14.230736 -0.0015869141 -27.877987 -5.6573486 -37.939507 -15.723022l0 0l0 0c-20.95203 -20.960754 -20.948214 -54.94098 0.008525848 -75.89697l842.2192 -842.1903c20.956726 -20.95602 54.93048 -20.952206 75.88257 0.008522034z" fill-rule="evenodd"/></g></svg>