<svg version="1.1" viewBox="0.0 0.0 1024.0 1024.0" fill="none" stroke="none" stroke-linecap="square" stroke-miterlimit="10" xmlns:xlink="http://www.w3.org/1999/xlink" xmlns="http://www.w3.org/2000/svg"><clipPath id="g32f5294baee_0_0.0"><path d="m0 0l1024.0 0l0 1024.0l-1024.0 0l0 -1024.0z" clip-rule="nonzero"/></clipPath><g clip-path="url(#g32f5294baee_0_0.0)"><path fill="#000000" fill-opacity="0.0" d="m0 0l1024.0 0l0 1024.0l-1024.0 0z" fill-rule="evenodd"/><path fill="#f9a8d4" d="m134.93176 130.46117l0 0c0 -51.16057 41.47383 -92.6344 92.634384 -92.6344l108.96745 0l0 0c24.568146 0 48.130066 9.759666 65.50238 27.131985c17.372345 17.372322 27.131989 40.934235 27.131989 65.50241l0 763.07764c0 51.160583 -41.473816 92.6344 -92.63437 92.6344l-108.96745 0c-51.160553 0 -92.634384 -41.473816 -92.634384 -92.6344z" fill-rule="evenodd"/><path fill="#f9a8d4" d="m594.83203 130.46117l0 0c0 -51.16057 41.473816 -92.6344 92.6344 -92.6344l108.96741 0l0 0c24.568176 0 48.130127 9.759666 65.50244 27.131985c17.372314 17.372322 27.131958 40.934235 27.131958 65.50241l0 763.07764c0 51.160583 -41.473816 92.6344 -92.6344 92.6344l-108.96741 0c-51.160583 0 -92.6344 -41.473816 -92.6344 -92.6344z" fill-rule="evenodd"/></g></svg>